<svg version="1.1" xmlns="http://www.w3.org/2000/svg" xmlns:xlink="http://www.w3.org/1999/xlink" width="16.19747" height="16.19007" viewBox="0,0,16.19747,16.19007"><g transform="translate(-232,-171.99988)"><g data-paper-data="{&quot;isPaintingLayer&quot;:true}" fill-rule="nonzero" stroke-linejoin="miter" stroke-miterlimit="10" stroke-dasharray="" stroke-dashoffset="0" style="mix-blend-mode: normal"><path d="M240.186,173.113c-0.11938,-0.04784 -0.25262,-0.04784 -0.372,0l-5.968,2.387l6.154,2.461l6.154,-2.461zM247,176.239l-6.5,2.6v7.922l6.5,-2.6v-7.921zM239.5,186.762v-7.924l-6.5,-2.599v7.923zM239.443,172.184c0.35756,-0.143 0.75643,-0.143 1.114,0l7.129,2.852c0.18963,0.076 0.31395,0.25971 0.314,0.464v8.662c-0.00026,0.40883 -0.24935,0.77632 -0.629,0.928l-7.185,2.874c-0.11938,0.04784 -0.25262,0.04784 -0.372,0l-7.184,-2.874c-0.38004,-0.15135 -0.62958,-0.51892 -0.63,-0.928v-8.662c0.00005,-0.20429 0.12437,-0.388 0.314,-0.464z" fill="#ffffff" stroke="none" stroke-width="1" stroke-linecap="butt"/><path d="M246.204,175.49985l-6.204,2.51116l-6.204,-2.51116l6.01415,-2.43669c0.11938,-0.04784 0.26032,-0.04784 0.37971,0z" data-paper-data="{&quot;noHover&quot;:false,&quot;origItem&quot;:[&quot;Path&quot;,{&quot;applyMatrix&quot;:true,&quot;segments&quot;:[[[480.372,346.226],[0,0],[-0.23877,-0.09569]],[[479.628,346.226],[0.23877,-0.09569],[0,0]],[467.692,351],[480,355.922],[492.308,351]],&quot;closed&quot;:true,&quot;fillColor&quot;:[0,0,0,1]}]}" fill="#ffffff" stroke="#ffffff" stroke-width="0.5" stroke-linecap="butt"/><path d="M232.96132,184.19368l0.01241,-7.99722l6.56495,2.60986l-0.01241,7.99822z" data-paper-data="{&quot;noHover&quot;:false,&quot;origItem&quot;:[&quot;Path&quot;,{&quot;applyMatrix&quot;:true,&quot;segments&quot;:[[479,373.524],[479,357.676],[466,352.478],[466,368.324]],&quot;closed&quot;:true,&quot;fillColor&quot;:[0,0,0,1]}]}" fill="#ffffff" stroke="#ffffff" stroke-width="0.5" stroke-linecap="butt"/><path d="M247.02628,176.19747l0.0124,7.99521l-6.56497,2.61086l-0.0124,-7.99622l6.56497,-2.61086z" data-paper-data="{&quot;noHover&quot;:false,&quot;origItem&quot;:[&quot;Path&quot;,{&quot;applyMatrix&quot;:true,&quot;segments&quot;:[[494,352.478],[481,357.678],[481,373.522],[494,368.322],[494,352.48]],&quot;closed&quot;:true,&quot;fillColor&quot;:[0,0,0,1]}]}" fill="#ffffff" stroke="#ffffff" stroke-width="0.5" stroke-linecap="butt"/><path d="M232,187.99988v-16h16v16z" fill="none" stroke="none" stroke-width="0" stroke-linecap="butt"/><g fill="#c77dff" stroke="#9d4edd" stroke-width="0.375" stroke-linecap="round"><path d="M242.03362,183.39826l-0.56792,-0.02469l-0.20989,0.34569l0.22223,0.321l1.00003,0.40395l0.95065,0.62965l0.33334,1.13584l-0.43211,1.16053l-1.11115,0.62965l-1.43215,-0.07408l-1.07411,-0.37038l-0.59261,-0.66669l0.92596,-1.0988l0.25926,0.28396l0.69138,0.39507l0.79015,0.14814l0.18519,-0.40742l-0.34569,-0.53088l-1.33338,-0.59869l-0.72842,-0.71608l-0.08643,-0.96299l0.43211,-0.81484l0.82719,-0.6173l0.97534,-0.13581l1.02473,0.321l0.9383,0.74077l-0.88893,1.06177z"/><path d="M246.42205,183.79894l-0.51848,-0.02254l-0.1916,0.31559l0.20288,0.29305l0.91296,0.36877l0.86787,0.57483l0.30432,1.03693l-0.39449,1.05948l-1.0144,0.57483l-1.30745,-0.06762l-0.98058,-0.33813l-0.54101,-0.60864l0.59841,-0.80559l0.533,0.30862l0.58179,0.11375l0.69288,-0.13792l-0.11805,-0.58343l-1.21728,-0.54656l-0.66499,-0.65372l-0.0789,-0.87914l0.39449,-0.74389l0.75516,-0.56355l0.89042,-0.12398l0.9355,0.29305l0.8566,0.67627l-0.51521,0.82116z"/></g></g></g></svg>