<svg version="1.1" xmlns="http://www.w3.org/2000/svg" xmlns:xlink="http://www.w3.org/1999/xlink" width="15.19747" height="15.19007" viewBox="0,0,15.19747,15.19007"><g transform="translate(-232.5,-172.5)"><g data-paper-data="{&quot;isPaintingLayer&quot;:true}" fill-rule="nonzero" stroke-linejoin="miter" stroke-miterlimit="10" stroke-dasharray="" stroke-dashoffset="0" style="mix-blend-mode: normal"><path d="M232.5,187.5v-15h15v15z" fill="none" stroke="none" stroke-width="0" stroke-linecap="butt"/><g fill="#ffffff" stroke="none" stroke-width="1" stroke-linecap="butt"><path d="M235.904,173.277c1.074,-0.488 2.523,-0.777 4.096,-0.777c1.573,0 3.022,0.289 4.096,0.777c1.029,0.468 1.904,1.216 1.904,2.223c0,1.007 -0.875,1.755 -1.904,2.223c-1.074,0.488 -2.523,0.777 -4.096,0.777c-1.573,0 -3.022,-0.289 -4.096,-0.777c-1.029,-0.468 -1.904,-1.216 -1.904,-2.223c0,-1.007 0.875,-1.755 1.904,-2.223"/><path d="M234,177.661c0.457,0.432 1.004,0.752 1.49,0.972c1.232,0.56 2.828,0.867 4.51,0.867c1.682,0 3.278,-0.307 4.51,-0.867c0.486,-0.221 1.033,-0.54 1.49,-0.972v0.839c0,1.007 -0.875,1.755 -1.904,2.223c-1.074,0.488 -2.523,0.777 -4.096,0.777c-1.573,0 -3.022,-0.29 -4.096,-0.777c-1.029,-0.468 -1.904,-1.216 -1.904,-2.223v-0.839"/><path d="M234,180.661c0.457,0.432 1.004,0.752 1.49,0.972c1.232,0.56 2.828,0.867 4.51,0.867c1.682,0 3.278,-0.307 4.51,-0.867c0.486,-0.221 1.033,-0.54 1.49,-0.972v0.839c0,1.007 -0.875,1.755 -1.904,2.223c-1.074,0.488 -2.523,0.777 -4.096,0.777c-1.573,0 -3.022,-0.289 -4.096,-0.777c-1.029,-0.468 -1.904,-1.216 -1.904,-2.223v-0.839"/><path d="M234,183.661c0.457,0.432 1.004,0.752 1.49,0.972c1.232,0.56 2.828,0.867 4.51,0.867c1.682,0 3.278,-0.307 4.51,-0.867c0.486,-0.221 1.033,-0.54 1.49,-0.972v0.839c0,1.007 -0.875,1.755 -1.904,2.223c-1.074,0.488 -2.523,0.777 -4.096,0.777c-1.573,0 -3.022,-0.289 -4.096,-0.777c-1.029,-0.468 -1.904,-1.216 -1.904,-2.223v-0.839"/></g><g fill="#c77dff" stroke="#9d4edd" stroke-width="0.375" stroke-linecap="round"><path d="M241.53363,182.89837l-0.56792,-0.02469l-0.20989,0.34569l0.22223,0.321l1.00003,0.40395l0.95065,0.62965l0.33334,1.13584l-0.43211,1.16053l-1.11115,0.62965l-1.43215,-0.07408l-1.07411,-0.37038l-0.59261,-0.66669l0.92596,-1.0988l0.25926,0.28396l0.69138,0.39507l0.79015,0.14814l0.18519,-0.40742l-0.34569,-0.53088l-1.33338,-0.59869l-0.72842,-0.71608l-0.08643,-0.96299l0.43211,-0.81484l0.82719,-0.6173l0.97534,-0.13581l1.02473,0.321l0.9383,0.74077l-0.88893,1.06177z"/><path d="M245.92206,183.29905l-0.51848,-0.02254l-0.1916,0.31559l0.20288,0.29305l0.91296,0.36877l0.86787,0.57483l0.30432,1.03693l-0.39449,1.05948l-1.0144,0.57483l-1.30745,-0.06762l-0.98058,-0.33813l-0.54101,-0.60864l0.59841,-0.80559l0.533,0.30862l0.58179,0.11375l0.69288,-0.13792l-0.11805,-0.58343l-1.21728,-0.54656l-0.66499,-0.65372l-0.0789,-0.87914l0.39449,-0.74389l0.75516,-0.56355l0.89042,-0.12398l0.9355,0.29305l0.8566,0.67627l-0.51521,0.82116z"/></g></g></g></svg>