<svg version="1.1" xmlns="http://www.w3.org/2000/svg" xmlns:xlink="http://www.w3.org/1999/xlink" width="16.39747" height="16.39007" viewBox="0,0,16.39747,16.39007"><g transform="translate(-231.9,-171.9)"><g data-paper-data="{&quot;isPaintingLayer&quot;:true}" stroke-linejoin="miter" stroke-miterlimit="10" stroke-dasharray="" stroke-dashoffset="0" style="mix-blend-mode: normal"><path d="M238,180v-7.58824h1v6.70524l1.743,-1.047c0.15822,-0.09481 0.35578,-0.09481 0.514,0l1.743,1.047v-6.70524h1v7.58824c0.00004,0.1801 -0.09679,0.34631 -0.25348,0.43511c-0.15669,0.0888 -0.34903,0.08647 -0.50352,-0.00611l-2.243,-1.346l-2.243,1.347c-0.15464,0.09267 -0.3472,0.09491 -0.50396,0.00586c-0.15676,-0.08904 -0.25344,-0.25558 -0.25304,-0.43586" fill="#ffffff" fill-rule="evenodd" stroke="none" stroke-width="1" stroke-linecap="butt"/><path d="M235,172h10c1.10457,0 2,0.89543 2,2v12c0,1.10457 -0.89543,2 -2,2h-10c-1.10457,0 -2,-0.89543 -2,-2v-11.41176h1v11.41176c0,0.55228 0.44772,1 1,1h10c0.55228,0 1,-0.44772 1,-1v-12c0,-0.55228 -0.44772,-1 -1,-1h-10c-0.55228,0 -1,0.44772 -1,1v1h-1v-1c0,-1.10457 0.89543,-2 2,-2" fill="#ffffff" fill-rule="nonzero" stroke="none" stroke-width="1" stroke-linecap="butt"/><path d="M233.74808,187.21565v-14.52941c0,0 2.58571,-0.05882 4.58824,-0.05882c0.43149,0 -0.09912,6.76471 0.47059,6.76471c0.26277,0 1.53433,-0.76038 2.41749,-0.55389c0.90706,0.21208 1.43024,1.37953 2.01666,0.47154c0.99591,-1.54202 0.00821,-6.62353 0.4482,-6.62353c1.26328,0 2.64706,0 2.64706,0v14.52941z" fill="#ffffff" fill-rule="nonzero" stroke="none" stroke-width="0" stroke-linecap="butt"/><path d="M233,177v-0.5c0,-0.27614 0.22386,-0.5 0.5,-0.5c0.27614,0 0.5,0.22386 0.5,0.5v0.5h0.5c0.27614,0 0.5,0.22386 0.5,0.5c0,0.27614 -0.22386,0.5 -0.5,0.5h-2c-0.27614,0 -0.5,-0.22386 -0.5,-0.5c0,-0.27614 0.22386,-0.5 0.5,-0.5zM233,180v-0.5c0,-0.27614 0.22386,-0.5 0.5,-0.5c0.27614,0 0.5,0.22386 0.5,0.5v0.5h0.5c0.27614,0 0.5,0.22386 0.5,0.5c0,0.27614 -0.22386,0.5 -0.5,0.5h-2c-0.27614,0 -0.5,-0.22386 -0.5,-0.5c0,-0.27614 0.22386,-0.5 0.5,-0.5zM233,183v-0.5c0,-0.27614 0.22386,-0.5 0.5,-0.5c0.27614,0 0.5,0.22386 0.5,0.5v0.5h0.5c0.27614,0 0.5,0.22386 0.5,0.5c0,0.27614 -0.22386,0.5 -0.5,0.5h-2c-0.27614,0 -0.5,-0.22386 -0.5,-0.5c0,-0.27614 0.22386,-0.5 0.5,-0.5z" fill="#ffffff" fill-rule="nonzero" stroke="none" stroke-width="1" stroke-linecap="butt"/><g fill="#c77dff" fill-rule="nonzero" stroke="#9d4edd" stroke-width="0.375" stroke-linecap="round"><path d="M242.13362,183.49838l-0.56792,-0.02469l-0.20989,0.34569l0.22223,0.321l1.00003,0.40395l0.95065,0.62965l0.33334,1.13584l-0.43211,1.16053l-1.11115,0.62965l-1.43215,-0.07408l-1.07411,-0.37038l-0.59261,-0.66669l0.92596,-1.0988l0.25927,0.28396l0.69138,0.39507l0.79015,0.14815l0.18519,-0.40742l-0.34569,-0.53088l-1.33338,-0.59869l-0.72842,-0.71608l-0.08643,-0.96299l0.43211,-0.81484l0.82719,-0.6173l0.97534,-0.13581l1.02473,0.321l0.9383,0.74077l-0.88892,1.06177z"/><path d="M246.52205,183.89906l-0.51847,-0.02254l-0.19161,0.31559l0.20288,0.29305l0.91296,0.36877l0.86787,0.57483l0.30432,1.03694l-0.39449,1.05948l-1.0144,0.57483l-1.30745,-0.06762l-0.98058,-0.33813l-0.54101,-0.60864l0.59841,-0.80559l0.533,0.30862l0.5818,0.11375l0.69288,-0.13792l-0.11805,-0.58343l-1.21728,-0.54656l-0.66499,-0.65372l-0.0789,-0.87914l0.39449,-0.74389l0.75516,-0.56355l0.89042,-0.12398l0.9355,0.29305l0.8566,0.67627l-0.51521,0.82116z"/></g><path d="M231.9,188.1v-16.2h16.2v16.2z" fill="none" fill-rule="nonzero" stroke="none" stroke-width="0" stroke-linecap="butt"/></g></g></svg>