<svg version="1.1" xmlns="http://www.w3.org/2000/svg" xmlns:xlink="http://www.w3.org/1999/xlink" width="16.75744" height="16.75003" viewBox="0,0,16.75744,16.75003"><g transform="translate(-231.72002,-171.72002)"><g data-paper-data="{&quot;isPaintingLayer&quot;:true}" fill-rule="nonzero" stroke-linejoin="miter" stroke-miterlimit="10" stroke-dasharray="" stroke-dashoffset="0" style="mix-blend-mode: normal"><path d="M231.72002,188.27998v-16.55996h16.55997v16.55996z" fill="none" stroke="none" stroke-width="0" stroke-linecap="butt"/><path d="M236,172h5.293c0.26519,0.00006 0.51951,0.10545 0.707,0.293l3.707,3.707c0.18755,0.18749 0.29294,0.44181 0.293,0.707v9.293c0,1.10457 -0.89543,2 -2,2h-8c-1.10457,0 -2,-0.89543 -2,-2v-12c0,-1.10457 0.89543,-2 2,-2M241.5,173.5v2c0,0.55228 0.44772,1 1,1h2z" fill="#ffffff" stroke="none" stroke-width="1" stroke-linecap="butt"/><g fill="#c77dff" stroke="#9d4edd" stroke-width="0.375" stroke-linecap="round"><path d="M242.31361,183.67835l-0.56792,-0.02469l-0.20989,0.34569l0.22223,0.321l1.00003,0.40395l0.95065,0.62965l0.33334,1.13584l-0.43211,1.16053l-1.11115,0.62965l-1.43215,-0.07408l-1.07411,-0.37038l-0.59261,-0.66669l0.92596,-1.0988l0.25927,0.28396l0.69138,0.39507l0.79015,0.14815l0.18519,-0.40742l-0.34569,-0.53088l-1.33338,-0.59869l-0.72842,-0.71608l-0.08643,-0.96299l0.43211,-0.81484l0.82719,-0.6173l0.97534,-0.13581l1.02473,0.321l0.9383,0.74077l-0.88892,1.06177z"/><path d="M246.70204,184.07903l-0.51847,-0.02254l-0.19161,0.31559l0.20288,0.29305l0.91296,0.36877l0.86787,0.57483l0.30432,1.03694l-0.39449,1.05948l-1.0144,0.57483l-1.30745,-0.06762l-0.98058,-0.33813l-0.54101,-0.60864l0.59841,-0.80559l0.533,0.30862l0.5818,0.11375l0.69288,-0.13792l-0.11805,-0.58343l-1.21728,-0.54656l-0.66499,-0.65372l-0.0789,-0.87914l0.39449,-0.74389l0.75516,-0.56355l0.89042,-0.12398l0.9355,0.29305l0.8566,0.67627l-0.51521,0.82116z"/></g></g></g></svg>