<svg version="1.1" xmlns="http://www.w3.org/2000/svg" xmlns:xlink="http://www.w3.org/1999/xlink" width="91.05427" height="90.84187" viewBox="0,0,91.05427,90.84187"><g transform="translate(-194.36666,-134.57906)"><g data-paper-data="{&quot;isPaintingLayer&quot;:true}" stroke-miterlimit="10" stroke-dasharray="" stroke-dashoffset="0" style="mix-blend-mode: normal"><g fill="#ffffff" fill-rule="nonzero" stroke="none" stroke-width="1" stroke-linecap="butt" stroke-linejoin="miter"><path d="M253.41635,158.18504h25.48025c3.51809,0 6.37006,2.85198 6.37006,6.37007v38.22038c0,3.51809 -2.85197,6.37006 -6.37006,6.37006h-25.48025c-3.51809,0 -6.37006,-2.85197 -6.37006,-6.37006v-38.22038c0,-3.51809 2.85197,-6.37007 6.37006,-6.37007M261.37893,185.25781v2.98756l-1.27403,5.09286c-0.32522,1.30564 0.20509,2.67482 1.32498,3.42072l2.96208,1.97472c1.06957,0.71268 2.46263,0.71268 3.5322,0l2.96208,-1.97472c1.11868,-0.74676 1.64769,-2.11578 1.3218,-3.42072l-1.27402,-5.09286v-2.98756c0,-1.75903 -1.426,-3.18503 -3.18503,-3.18503h-3.18503c-1.75903,0 -3.18503,1.426 -3.18503,3.18503M264.56396,167.74014h-3.18503v3.18503h3.18503v3.18503h-3.18503v3.18503h3.18503v3.18503h4.77755v-3.18503h-3.18503v-3.18503h3.18503v-3.18503h-3.18503v-3.18503h3.18503v-3.18503h-3.18503v-3.18503h-4.77755v3.18503h3.18503z"/><path d="M267.74899,188.24537c0.00003,0.26092 0.0321,0.52085 0.09555,0.77396l1.27402,5.08968l-2.96208,1.97472l-2.96208,-1.97472l1.27402,-5.08968c0.06345,-0.25311 0.09552,-0.51305 0.09555,-0.77396v-2.98756h3.18503v2.98756"/></g><g fill-rule="evenodd"><path d="M242.06667,150.95445c0.3,-0.2 0.8,-0.1 0.9,0.3l2.6,10.7c0,0 6.4,4.7 8.3,8c3.2,5.5 3.3,10 3.3,10c0,0 7.09999,2.1 8.29999,7.8c1.2,5.7 -3.2,16.5 -21.99999,20.2c-18.8,3.7 -33.9,-1.4 -41,-12.8c-7.1,-11.4 4.1,-25 3.5,-24.2l-2.1,-17.9c-0.1,-0.4 0.4,-0.7 0.8,-0.5l12.1,7.9c0,0 4.5,-1.7 9.2,-1.9c2.8,-0.2 5.2,0 7.5,0.4z" fill="#ffab19" stroke="#001026" stroke-width="1.2" stroke-linecap="butt" stroke-linejoin="miter"/><path d="M256.86667,180.35445c0,0 6.9,1.8 8.1,7.5c1.2,5.7 -3.59999,16 -22.19999,19.6c-24.2,5 -35.7,-9.4 -29,-20c6.7,-10.7 18.2,-1.6 26.6,-2.2c7.2,-0.5 8,-6.8 16.5,-4.9z" fill="#ffffff" stroke="none" stroke-width="1" stroke-linecap="butt" stroke-linejoin="miter"/><path d="M225.36667,191.05445c0,-0.4 0.4,-0.7 0.8,-0.6c1.9,0.7 7.3,2.3 13.3,2.7c5.4,0.3 8.6,0 10.1,-0.3c0.5,-0.1 0.9,0.4 0.7,0.9c-0.9,2.7 -4.7,10.2 -15.2,9.6c-9.1,-1 -10,-7.4 -9.7,-12.3z" fill="#ffffff" stroke="#001026" stroke-width="1.2" stroke-linecap="round" stroke-linejoin="round"/><path d="M275.26667,181.45445c-4.7,3.8 -11.9,3.9 -11.9,3.9" fill="none" stroke="#001026" stroke-width="1.2" stroke-linecap="round" stroke-linejoin="round"/><path d="M273.96666,192.65445c-6.3,0.5 -10.2,-1.4 -10.2,-1.4" fill="none" stroke="#001026" stroke-width="1.2" stroke-linecap="round" stroke-linejoin="round"/><path d="M239.96667,182.65445c2.1,0 4.3,0.2 4.4,0.9c0.1,1.4 -1.4,4.2 -3,4.3c-1.8,0.2 -6,-2.3 -6,-3.9c-0.1,-1.2 2.6,-1.3 4.6,-1.3z" fill="#001026" stroke="#001026" stroke-width="1.2" stroke-linecap="round" stroke-linejoin="round"/><path d="M194.96667,181.15445c0,0 8.6,2.8 12.1,5.9" fill="none" stroke="#001026" stroke-width="1.2" stroke-linecap="round" stroke-linejoin="round"/><path d="M207.36667,190.55445c-4.3,1.7 -11.7,0.6 -11.7,0.6" fill="none" stroke="#001026" stroke-width="1.2" stroke-linecap="round" stroke-linejoin="round"/><g><path d="M251.76667,170.95445c2.9,4.5 3,9.6 0.2,11.4c-2.8,1.8 -7.4,-0.3 -10.4,-4.8c-2.9,-4.5 -3,-9.6 -0.2,-11.4c2.8,-1.9 7.5,0.3 10.4,4.8z" fill="#ffffff" stroke="#001026" stroke-width="1.2" stroke-linecap="round" stroke-linejoin="round"/><path d="M251.36667,176.65445c0,1.1 -0.8,2 -1.8,2c-1,0 -1.8,-0.9 -1.8,-2c0,-1.1 0.8,-2 1.8,-2c1,0 1.8,0.9 1.8,2" fill="#001026" stroke="none" stroke-width="1" stroke-linecap="butt" stroke-linejoin="miter"/></g><g><path d="M226.96667,173.75445c3,4.4 2.8,9.8 0.1,11.7c-3.3,1.9 -7.7,0.5 -10.7,-3.9c-3.1,-4.4 -3.29999,-10.1 -0.2,-12.3c3.1,-2.3 7.79999,0.1 10.79999,4.5z" fill="#ffffff" stroke="#001026" stroke-width="1.2" stroke-linecap="round" stroke-linejoin="round"/><path d="M226.36667,179.55445c0,1.1 -0.8,2 -1.8,2c-1,0 -1.8,-0.9 -1.8,-2c0,-1.1 0.8,-2 1.8,-2c1,0.1 1.8,0.9 1.8,2" fill="#001026" stroke="none" stroke-width="1" stroke-linecap="butt" stroke-linejoin="miter"/></g></g><path d="M194.57906,225.42094v-90.84187h90.84187v90.84187z" fill="none" fill-rule="nonzero" stroke="none" stroke-width="0" stroke-linecap="butt" stroke-linejoin="miter"/></g></g></svg>